<?xml version="1.0"?>
<svg version="1.0" width="288" height="432" viewBox="0 0 288 432" preserveAspectRatio="xMidYMid" id="svg9" xmlns="http://www.w3.org/2000/svg" xmlns:svg="http://www.w3.org/2000/svg">
  <defs id="defs9"></defs>
  <g fill="#f9f3ea" id="g4">
    <path d="M 0,216 V 0 H 144 288 V 216 432 H 144 0 Z m 159.4,150.72 c 3.74,-3.08 11.39,-10.66 14.61,-14.5 20.46,-24.2 36.03,-62.93 40.22,-100.04 1.59,-14.09 1.7,-24.02 0.35,-36.35 -2.22,-20.04 -8.83,-39.39 -18.38,-53.69 -4.36,-6.54 -6.75,-9.42 -12.98,-15.65 -4.22,-4.22 -5.3,-5.5 -5.3,-6.23 0,-0.73 0.73,-1.56 3.46,-3.95 12.6,-11.11 20.32,-26.2 21.81,-42.72 1.11,-12.25 -3.08,-27.28 -10.77,-38.73 -6.75,-10.07 -16.03,-18.07 -26.45,-22.85 -5.75,-2.6 -13.19,-4.67 -19.38,-5.33 -3.84,-0.38 -13.29,0.14 -17.55,1.04 -18.69,3.88 -35.52,17.41 -44.1,35.45 -4.85,10.14 -6.99,20.98 -6.09,30.6 2.18,22.74 15.23,41.4 36.21,51.65 6.27,3.08 16.55,5.85 21.67,5.85 0.9,0 2.6,0.1 3.77,0.21 2.56,0.28 2.53,0.1 1.07,6.09 -4.29,17.76 -3.57,32.47 2.46,50.57 2.11,6.33 3.7,10.07 9.42,22.05 6.27,13.19 7.72,16.55 10.14,23.71 4.81,14.09 6.51,24.99 6.51,41.71 0.03,11.87 -0.59,19.11 -2.6,31.5 -2.04,12.63 -6.33,28.83 -10.45,39.57 -0.48,1.28 -0.8,2.32 -0.66,2.32 0.14,0 1.49,-1.04 3.01,-2.28 z m -36.38,-43.3 c -3.88,-8.58 -7.13,-16.06 -9.21,-21.22 C 98.44,263.88 91.1,216.7 93.49,171.56 c 0.21,-3.95 0.31,-7.27 0.21,-7.34 -0.21,-0.21 -3.84,5.12 -6.09,8.97 -10.32,17.58 -15.85,39.25 -15.16,59.26 0.55,16.13 4.5,32.61 11.22,46.87 6.99,14.92 18.42,29.39 31.53,39.98 2.04,1.63 8.34,6.09 8.62,6.09 0.03,0 -0.31,-0.9 -0.8,-1.97 z" id="path1" style="display:none"></path>
    <path d="m 132.78,142.93 c -5.64,-0.83 -13.33,-3.57 -18.97,-6.75 -5.02,-2.8 -8.62,-5.64 -13.29,-10.32 -7.93,-8 -13.05,-17.55 -14.88,-27.9 -0.73,-4.05 -0.8,-12.63 -0.17,-16.27 0.59,-3.36 2.25,-8.62 3.57,-11.25 3.98,-7.93 11.11,-14.26 18.62,-16.62 2.94,-0.9 13.36,-1.14 16.1,-0.35 5.88,1.7 11.7,6.06 15.33,11.53 0.66,0.97 1.25,1.8 1.32,1.8 0.07,0 0.76,-0.97 1.56,-2.11 4.15,-6.13 11.46,-10.87 18.07,-11.73 3.88,-0.52 9.52,-0.42 11.84,0.17 12.5,3.29 21.6,13.88 24.27,28.38 0.87,4.78 0.52,14.33 -0.69,19.11 -2.84,11.28 -8.79,20.8 -18.03,28.73 -7.79,6.72 -15.96,10.94 -25.51,13.12 -3.29,0.73 -4.43,0.83 -10.38,0.8 -3.67,-0.03 -7.58,-0.17 -8.72,-0.35 z m 12.36,-21.53 c 1.83,-5.61 1.59,-6.96 -1.83,-11.22 -2.67,-3.29 -2.7,-3.29 -5.16,-0.52 -4.67,5.12 -4.64,7.13 0.07,17.9 l 2.11,4.81 1.97,-4.08 c 1.07,-2.25 2.35,-5.33 2.84,-6.89 z m -24.72,-20.04 c 3.53,-1.7 6.51,-5.47 7.34,-9.28 0.97,-4.57 -2.94,-10.49 -8.24,-12.46 -1.66,-0.62 -2.25,-0.66 -4.26,-0.38 -5.16,0.69 -9.17,4.33 -10.52,9.48 -0.45,1.73 -0.45,2.22 0,3.95 1.14,4.36 4.29,7.68 8.76,9.17 2.35,0.76 4.67,0.62 6.92,-0.48 z m 49.15,-0.17 c 4.22,-2.11 7.13,-6.37 7.13,-10.49 0,-4.29 -2.98,-8.62 -7.37,-10.66 -2.67,-1.25 -6.16,-1.18 -8.93,0.17 -4.05,1.97 -7.23,6.61 -7.2,10.49 0,2.7 1.45,5.75 3.74,7.93 4.08,3.84 8.34,4.71 12.63,2.56 z" id="path2" style="display:none"></path>
    <path d="m 114.44,92.73 c -0.8,-0.62 -0.9,-0.97 -0.9,-2.73 0,-2.7 0.73,-3.46 3.29,-3.46 2.7,0 3.29,0.59 3.29,3.29 0,1.97 -0.1,2.28 -0.9,2.91 -0.62,0.48 -1.42,0.73 -2.39,0.73 -0.97,0 -1.77,-0.24 -2.39,-0.73 z" id="path3"></path>
    <path d="m 162.24,92.49 c -0.87,-0.93 -0.8,-4.6 0.03,-5.37 0.93,-0.87 4.6,-0.8 5.37,0.03 0.87,0.93 0.8,4.6 -0.03,5.37 -0.93,0.87 -4.6,0.8 -5.37,-0.03 z" id="path4"></path>
  </g>
  <g fill="#bd4e30" id="g9">
    <path d="m 153.35,372.57 c 0,-0.17 0.87,-2.42 1.9,-5.09 4.71,-11.91 8.97,-27.62 11.22,-41.4 1.97,-12.08 2.6,-19.63 2.6,-30.46 0,-15.65 -1.8,-26.93 -6.51,-40.67 -2.42,-7.17 -3.88,-10.52 -10.14,-23.71 -5.71,-11.98 -7.3,-15.72 -9.42,-22.05 -3.98,-11.87 -5.43,-21.46 -5.12,-33.27 0.17,-7.23 0.8,-11.73 2.63,-19.25 l 0.97,-3.95 -2.08,-0.21 c -1.14,-0.1 -2.8,-0.21 -3.7,-0.21 -5.12,0 -15.4,-2.77 -21.67,-5.85 -20.6,-10.07 -33.68,-28.42 -36.1,-50.64 -2.08,-18.93 5.33,-38.8 19.56,-52.55 8.93,-8.58 19.35,-14.26 30.5,-16.58 4.71,-0.97 15.06,-1.52 19.45,-1.04 24.33,2.67 44.31,18.55 53.1,42.2 3.18,8.52 4.5,18.1 3.7,26.65 -1.52,16.68 -9.1,31.6 -21.74,42.78 l -3.39,3.01 5.23,5.23 c 2.87,2.87 6.23,6.47 7.44,8 4.05,4.98 8.62,12.25 11.77,18.69 14.57,29.77 16.96,66.77 6.92,107.31 -6.96,28.04 -18.87,53.27 -34.06,72.17 -2.8,3.5 -11.11,11.98 -14.75,15.02 -3.15,2.67 -8.31,6.27 -8.31,5.85 z m -2.49,-231.13 c 9.55,-2.18 17.72,-6.4 25.51,-13.12 9.24,-7.93 15.23,-17.48 18.03,-28.73 1.21,-4.81 1.52,-12.5 0.69,-17.03 -2.67,-14.5 -11.77,-25.1 -24.27,-28.38 -2.32,-0.59 -6.06,-0.66 -9.76,-0.17 -7.03,0.9 -14.19,5.78 -18.69,12.67 -1.04,1.63 -1.97,2.91 -2.01,2.84 -0.07,-0.07 -0.9,-1.28 -1.83,-2.7 -4.05,-6.2 -9.59,-10.49 -15.82,-12.32 -2.63,-0.76 -11.04,-0.52 -14.02,0.38 -7.17,2.22 -14.02,8.1 -18,15.51 -3.01,5.57 -4.6,12.15 -4.6,18.93 0.03,9.66 2.94,18.73 8.83,27.59 2.91,4.36 9.28,10.97 13.71,14.23 5.85,4.33 12.98,7.75 19.87,9.59 4.67,1.25 6.61,1.45 13.02,1.52 4.85,0.03 6.16,-0.07 9.35,-0.8 z" id="path5"></path>
    <path d="m 139.67,133.86 c -0.93,-1.45 -4.26,-9.14 -5.23,-12.08 -1.21,-3.81 -1.32,-7.13 -0.24,-9.28 0.45,-0.87 1.73,-2.6 2.91,-3.88 1.77,-2.01 2.28,-2.35 3.22,-2.35 0.66,0 1.56,0.31 2.04,0.69 1.18,0.93 3.95,4.67 4.64,6.2 0.73,1.73 0.42,5.71 -0.76,9.21 -1.07,3.18 -5.33,12.29 -5.75,12.29 -0.17,0 -0.52,-0.35 -0.83,-0.8 z" id="path6"></path>
    <path d="m 112.47,102.88 c -9.14,-3.05 -12.15,-13.71 -5.82,-20.67 2.42,-2.63 5.12,-3.88 8.97,-4.19 2.53,-0.17 3.22,-0.1 4.92,0.52 9,3.43 11.39,14.68 4.47,21.25 -1.07,1 -2.7,2.22 -3.63,2.67 -2.32,1.11 -6.23,1.28 -8.9,0.42 z m 5.71,-11.18 c 1.18,-0.93 1.25,-2.8 0.14,-3.57 -2.49,-1.77 -5.23,1.7 -2.84,3.57 0.52,0.42 1.11,0.73 1.35,0.73 0.24,0 0.83,-0.31 1.35,-0.73 z" id="path7"></path>
    <path d="m 161.9,103.15 c -3.57,-0.9 -7.2,-3.95 -8.76,-7.37 -0.87,-1.83 -1,-2.6 -1,-5.09 0,-2.56 0.14,-3.22 1.07,-5.19 1.28,-2.7 3.6,-5.09 6.23,-6.37 1.66,-0.83 2.39,-0.97 5.43,-1 3.18,-0.07 3.74,0.03 5.5,0.87 2.73,1.28 4.92,3.39 6.27,6.13 1,2.08 1.11,2.56 1.11,5.57 0,2.94 -0.1,3.5 -1,5.37 -1.28,2.6 -3.6,4.88 -6.23,6.2 -1.59,0.8 -2.56,1.04 -4.67,1.11 -1.45,0.07 -3.22,-0.03 -3.95,-0.21 z m 4.67,-11.67 c 0.76,-0.69 0.8,-2.42 0.03,-3.29 -0.69,-0.76 -2.42,-0.8 -3.29,-0.03 -0.76,0.69 -0.8,2.42 -0.03,3.29 0.69,0.76 2.42,0.8 3.29,0.03 z" id="path8"></path>
    <path d="m 121.81,325.8 c -21.77,-14.33 -38.22,-36.83 -45.52,-62.31 -5.16,-18 -6.33,-36.07 -3.39,-53.38 1.83,-10.83 5.54,-22.26 10.38,-31.95 3.63,-7.2 10.21,-17.2 11.35,-17.2 0.59,0 0.62,0.21 0.42,3.05 -2.53,33.54 0.21,67.67 8.13,100.45 4.64,19.25 11.53,38.22 21.63,59.5 1.21,2.56 2.22,4.71 2.22,4.74 0,0.42 -1.07,-0.17 -5.23,-2.91 z" id="path9"></path>
  </g>
</svg>